<svg id="Group_4467" data-name="Group 4467" xmlns="http://www.w3.org/2000/svg" width="53.539" height="53.539" viewBox="0 0 53.539 53.539">
  <g id="Path_11981" data-name="Path 11981" fill="#fff">
    <path d="M 26.76953125 53.0390625 C 23.22295188903809 53.0390625 19.7827205657959 52.34457015991211 16.54440116882324 50.97487258911133 C 13.41630077362061 49.65180206298828 10.6068811416626 47.75760269165039 8.194170951843262 45.34489059448242 C 5.781461238861084 42.93218231201172 3.887261152267456 40.12276077270508 2.564191341400146 36.99465942382812 C 1.194491267204285 33.75634002685547 0.5000012516975403 30.31611061096191 0.5000012516975403 26.76953125 C 0.5000012516975403 23.22295188903809 1.194491267204285 19.7827205657959 2.564191341400146 16.54440116882324 C 3.887261152267456 13.41630077362061 5.781461238861084 10.6068811416626 8.194170951843262 8.194170951843262 C 10.6068811416626 5.781461238861084 13.41630077362061 3.887261152267456 16.54440116882324 2.564191341400146 C 19.7827205657959 1.194491267204285 23.22295188903809 0.5000012516975403 26.76953125 0.5000012516975403 C 30.31611061096191 0.5000012516975403 33.75634002685547 1.194491267204285 36.99465942382812 2.564191341400146 C 40.12276077270508 3.887261152267456 42.93218231201172 5.781461238861084 45.34489059448242 8.194170951843262 C 47.75760269165039 10.6068811416626 49.65180206298828 13.41630077362061 50.97487258911133 16.54440116882324 C 52.34457015991211 19.7827205657959 53.0390625 23.22295188903809 53.0390625 26.76953125 C 53.0390625 30.31611061096191 52.34457015991211 33.75634002685547 50.97487258911133 36.99465942382812 C 49.65180206298828 40.12276077270508 47.75760269165039 42.93218231201172 45.34489059448242 45.34489059448242 C 42.93218231201172 47.75760269165039 40.12276077270508 49.65180206298828 36.99465942382812 50.97487258911133 C 33.75634002685547 52.34457015991211 30.31611061096191 53.0390625 26.76953125 53.0390625 Z" stroke="none"/>
    <path d="M 26.76953125 1 C 23.29023170471191 1 19.91553115844727 1.681201934814453 16.73917007446289 3.024692535400391 C 13.67068099975586 4.322551727294922 10.9146728515625 6.180770874023438 8.547721862792969 8.547721862792969 C 6.180770874023438 10.9146728515625 4.322551727294922 13.67068099975586 3.024692535400391 16.73917007446289 C 1.681201934814453 19.91553115844727 1 23.29023170471191 1 26.76953125 C 1 30.24883079528809 1.681201934814453 33.62353134155273 3.024692535400391 36.79988861083984 C 4.322551727294922 39.86838150024414 6.180770874023438 42.6243896484375 8.547721862792969 44.99134063720703 C 10.9146728515625 47.35829162597656 13.67068099975586 49.21651077270508 16.73917007446289 50.51436996459961 C 19.91553115844727 51.85786056518555 23.29023170471191 52.5390625 26.76953125 52.5390625 C 30.24883079528809 52.5390625 33.62353134155273 51.85786056518555 36.79988861083984 50.51436996459961 C 39.86838150024414 49.21651077270508 42.6243896484375 47.35829162597656 44.99134063720703 44.99134063720703 C 47.35829162597656 42.6243896484375 49.21651077270508 39.86838150024414 50.51436996459961 36.79988861083984 C 51.85786056518555 33.62353134155273 52.5390625 30.24883079528809 52.5390625 26.76953125 C 52.5390625 23.29023170471191 51.85786056518555 19.91553115844727 50.51436996459961 16.73917007446289 C 49.21651077270508 13.67068099975586 47.35829162597656 10.9146728515625 44.99134063720703 8.547721862792969 C 42.6243896484375 6.180770874023438 39.86838150024414 4.322551727294922 36.79988861083984 3.024692535400391 C 33.62353134155273 1.681201934814453 30.24883079528809 1 26.76953125 1 M 26.76953125 0 C 41.55393218994141 0 53.5390625 11.98513031005859 53.5390625 26.76953125 C 53.5390625 41.55393218994141 41.55393218994141 53.5390625 26.76953125 53.5390625 C 11.98513031005859 53.5390625 0 41.55393218994141 0 26.76953125 C 0 11.98513031005859 11.98513031005859 0 26.76953125 0 Z" stroke="none" fill="#c1272d"/>
  </g>
  <g id="Path_11988" data-name="Path 11988" fill="#c1272d" opacity="0">
    <path d="M 26.76953125 53.0390625 C 23.22295188903809 53.0390625 19.7827205657959 52.34457015991211 16.54440116882324 50.97487258911133 C 13.41630077362061 49.65180206298828 10.6068811416626 47.75760269165039 8.194170951843262 45.34489059448242 C 5.781461238861084 42.93218231201172 3.887261152267456 40.12276077270508 2.564191341400146 36.99465942382812 C 1.194491267204285 33.75634002685547 0.5000012516975403 30.31611061096191 0.5000012516975403 26.76953125 C 0.5000012516975403 23.22295188903809 1.194491267204285 19.7827205657959 2.564191341400146 16.54440116882324 C 3.887261152267456 13.41630077362061 5.781461238861084 10.6068811416626 8.194170951843262 8.194170951843262 C 10.6068811416626 5.781461238861084 13.41630077362061 3.887261152267456 16.54440116882324 2.564191341400146 C 19.7827205657959 1.194491267204285 23.22295188903809 0.5000012516975403 26.76953125 0.5000012516975403 C 30.31611061096191 0.5000012516975403 33.75634002685547 1.194491267204285 36.99465942382812 2.564191341400146 C 40.12276077270508 3.887261152267456 42.93218231201172 5.781461238861084 45.34489059448242 8.194170951843262 C 47.75760269165039 10.6068811416626 49.65180206298828 13.41630077362061 50.97487258911133 16.54440116882324 C 52.34457015991211 19.7827205657959 53.0390625 23.22295188903809 53.0390625 26.76953125 C 53.0390625 30.31611061096191 52.34457015991211 33.75634002685547 50.97487258911133 36.99465942382812 C 49.65180206298828 40.12276077270508 47.75760269165039 42.93218231201172 45.34489059448242 45.34489059448242 C 42.93218231201172 47.75760269165039 40.12276077270508 49.65180206298828 36.99465942382812 50.97487258911133 C 33.75634002685547 52.34457015991211 30.31611061096191 53.0390625 26.76953125 53.0390625 Z" stroke="none"/>
    <path d="M 26.76953125 1 C 23.29023170471191 1 19.91553115844727 1.681201934814453 16.73917007446289 3.024692535400391 C 13.67068099975586 4.322551727294922 10.9146728515625 6.180770874023438 8.547721862792969 8.547721862792969 C 6.180770874023438 10.9146728515625 4.322551727294922 13.67068099975586 3.024692535400391 16.73917007446289 C 1.681201934814453 19.91553115844727 1 23.29023170471191 1 26.76953125 C 1 30.24883079528809 1.681201934814453 33.62353134155273 3.024692535400391 36.79988861083984 C 4.322551727294922 39.86838150024414 6.180770874023438 42.6243896484375 8.547721862792969 44.99134063720703 C 10.9146728515625 47.35829162597656 13.67068099975586 49.21651077270508 16.73917007446289 50.51436996459961 C 19.91553115844727 51.85786056518555 23.29023170471191 52.5390625 26.76953125 52.5390625 C 30.24883079528809 52.5390625 33.62353134155273 51.85786056518555 36.79988861083984 50.51436996459961 C 39.86838150024414 49.21651077270508 42.6243896484375 47.35829162597656 44.99134063720703 44.99134063720703 C 47.35829162597656 42.6243896484375 49.21651077270508 39.86838150024414 50.51436996459961 36.79988861083984 C 51.85786056518555 33.62353134155273 52.5390625 30.24883079528809 52.5390625 26.76953125 C 52.5390625 23.29023170471191 51.85786056518555 19.91553115844727 50.51436996459961 16.73917007446289 C 49.21651077270508 13.67068099975586 47.35829162597656 10.9146728515625 44.99134063720703 8.547721862792969 C 42.6243896484375 6.180770874023438 39.86838150024414 4.322551727294922 36.79988861083984 3.024692535400391 C 33.62353134155273 1.681201934814453 30.24883079528809 1 26.76953125 1 M 26.76953125 0 C 41.55393218994141 0 53.5390625 11.98513031005859 53.5390625 26.76953125 C 53.5390625 41.55393218994141 41.55393218994141 53.5390625 26.76953125 53.5390625 C 11.98513031005859 53.5390625 0 41.55393218994141 0 26.76953125 C 0 11.98513031005859 11.98513031005859 0 26.76953125 0 Z" stroke="none" fill="#c1272d"/>
  </g>
  <path id="Icon_material-arrow-forward" data-name="Icon material-arrow-forward" d="M-6.106,6l1.391,1.391-5.506,5.516H6.062V14.88H-10.221L-4.715,20.4l-1.391,1.391L-14,13.894Z" transform="translate(30.589 12.819)" fill="#c1272d"/>
</svg>
